# xmcd CD database file
#
# Track frame offsets:
#	150
#	33310
#	63155
#	101063
#	141745
#	178228
#	207568
#	240728
#	270573
#
# Disc length: 4111 seconds
#
# Revision: 0
# Processed by: cddbd v1.5.2PL0 Copyright (c) Steve Scherf et al.
# Submitted via: CDex 1.51
#
DISCID=8b100d09
DTITLE=Med Goodall - Antarctica
DYEAR=1900
DGENRE=New Age
TTITLE0=All White
TTITLE1=Ice Skating Penguin
TTITLE2=Endless Emptiness
TTITLE3=The Last Wilderness
TTITLE4=Please
TTITLE5=Snow Kingdom Forever
TTITLE6=All White
TTITLE7=Ice Skating Penguin
TTITLE8=Endless Emptiness
EXTD=
EXTT0=
EXTT1=
EXTT2=
EXTT3=
EXTT4=
EXTT5=
EXTT6=
EXTT7=
EXTT8=
PLAYORDER=
